<svg xmlns="http://www.w3.org/2000/svg" width="264.709" height="254.874" viewBox="0 0 264.709 254.874"><g transform="translate(0 0)"><ellipse cx="72.154" cy="72.154" rx="72.154" ry="72.154" transform="translate(120.402 72.185)" fill="#00a79d" opacity="0.25"/><ellipse cx="50.52" cy="50.52" rx="50.52" ry="50.52" transform="translate(142.035 93.819)" fill="#00a79d" opacity="0.5"/><path d="M34.8,168.034h0a28.824,28.824,0,0,1,0-40.964l81.679-81.523a28.855,28.855,0,0,1,40.808,0h0a28.886,28.886,0,0,1,0,40.839L75.638,168.034a28.855,28.855,0,0,1-40.839,0Z" transform="translate(55.472 78.372)" fill="#2bb673" opacity="0.5"/><path d="M81.445,173.194h0A28.855,28.855,0,0,1,52.59,144.339V28.855A28.855,28.855,0,0,1,81.445,0h0A28.855,28.855,0,0,1,110.3,28.855V144.339a28.855,28.855,0,0,1-28.855,28.855Z" transform="translate(111.11 0)" fill="#00a79d" opacity="0.5"/><ellipse cx="28.855" cy="28.855" rx="28.855" ry="28.855" transform="translate(81.835 197.131)" fill="#2bb673" opacity="0.75"/><ellipse cx="28.855" cy="28.855" rx="28.855" ry="28.855" transform="translate(163.7 115.483)" fill="#00a79d" opacity="0.75"/><path d="M34.765,130.99h0a28.793,28.793,0,0,1,0-40.839L116.444,8.534a28.793,28.793,0,0,1,40.808,0h0a28.855,28.855,0,0,1,0,40.808L75.6,130.99a28.855,28.855,0,0,1-40.839,0Z" transform="translate(55.505 0.119)" fill="#27aae1" opacity="0.5"/><ellipse cx="28.855" cy="28.855" rx="28.855" ry="28.855" transform="translate(163.7 0)" fill="#27aae1" opacity="0.75"/><path d="M8.534,8.534h0a28.793,28.793,0,0,1,40.808,0L130.99,90.151a28.855,28.855,0,0,1,0,40.808h0a28.855,28.855,0,0,1-40.808,0L8.534,49.342a28.793,28.793,0,0,1,0-40.808Z" transform="translate(0.119 0.119)" fill="#662d91" opacity="0.5"/><ellipse cx="72.154" cy="72.154" rx="72.154" ry="72.154" transform="translate(38.536 38.536)" fill="#662d91" opacity="0.25"/><ellipse cx="50.52" cy="50.52" rx="50.52" ry="50.52" transform="translate(60.17 60.17)" fill="#662d91" opacity="0.5"/><ellipse cx="28.855" cy="28.855" rx="28.855" ry="28.855" transform="translate(81.835 81.834)" fill="#662d91" opacity="0.75"/><ellipse cx="28.855" cy="28.855" rx="28.855" ry="28.855" transform="translate(0 0)" fill="#9e1f63" opacity="0.75"/></g></svg>